<?xml version="1.0" standalone="no"?>
<!DOCTYPE svg PUBLIC "-//W3C//DTD SVG 1.1//EN" "http://www.w3.org/Graphics/SVG/1.1/DTD/svg11.dtd" >
<!--
2013-9-30: Created.
-->
<svg>
<metadata>
Created by iconfont
</metadata>
<defs>

<font id="iconfont" horiz-adv-x="1024" >
  <font-face
    font-family="iconfont"
    font-weight="500"
    font-stretch="normal"
    units-per-em="1024"
    ascent="896"
    descent="-128"
  />
    <missing-glyph />
    
    <glyph glyph-name="bar_icon_search" unicode="&#58930;" d="M733.824 189.26080000000002l151.3984-151.3728a37.1712 37.1712 0 1 0-52.5824-52.5824l-154.0352 154.0352a345.1904 345.1904 0 0 0-203.5968-66.048C283.3664 73.29280000000006 128 228.78719999999998 128 420.608S283.3664 768 475.008 768 822.016 612.48 822.016 420.6336c0-88.8576-33.3568-169.9328-88.192-231.3728z m-258.816-41.5488c150.5792 0 272.64 122.1888 272.64 272.9216S625.5872 693.5552 475.008 693.5552c-150.5792 0-272.64-122.1888-272.64-272.896 0-150.7584 122.0608-272.9472 272.64-272.9472z"  horiz-adv-x="1024" />

    
    <glyph glyph-name="btn_packup_task" unicode="&#58931;" d="M512 440.3712l-210.432-199.04c-15.4368-14.592-40.448-14.592-55.8848 0l-3.712 3.5328a35.9424 35.9424 0 0 0 0 52.8384l242.0992 228.9664c15.4112 14.592 40.448 14.592 55.8592 0l242.0992-228.9664c15.4368-14.592 15.4368-38.2464 0-52.8384l-3.712-3.5328c-15.4368-14.592-40.448-14.592-55.8848 0L512 440.3712z"  horiz-adv-x="1877" />

    
    <glyph glyph-name="btn_link" unicode="&#58932;" d="M315.5456-76.79999999999995a263.68 263.68 0 0 0-187.008 77.312c-103.1168 103.1168-103.1168 270.8736 0 373.9648l142.592 142.592a37.3248 37.3248 0 1 0 52.7872-52.7872l-142.592-142.592c-73.984-73.984-73.984-194.3808 0-268.3904 74.0096-73.984 194.432-73.984 268.4416 0l142.592 142.592a37.3248 37.3248 0 0 0 52.7872-52.7872l-142.592-142.592A263.6544 263.6544 0 0 0 315.5456-76.79999999999995z m396.8 302.5664a37.2992 37.2992 0 0 0-26.368 63.7184l156.8512 156.8a188.3904 188.3904 0 0 1 55.296 134.2208 188.3648 188.3648 0 0 1-55.296 134.1696 188.4416 188.4416 0 0 1-134.2208 55.3216c-50.8928 0-98.56-19.6352-134.2464-55.296l-156.8512-156.8256a37.2992 37.2992 0 1 0-52.7616 52.7872l156.8256 156.8256c103.1168 103.0912 270.8992 103.0912 374.016 0A262.5792 262.5792 0 0 0 972.8 580.5056c0-70.8096-27.4176-137.216-77.184-186.9824l-156.8512-156.8256a37.1968 37.1968 0 0 0-26.3936-10.9312z m-340.5824-19.3792a37.2992 37.2992 0 0 0-26.368 63.7184l280.576 280.576a37.2992 37.2992 0 1 0 52.7872-52.7872l-280.6016-280.576a37.1968 37.1968 0 0 0-26.368-10.9312z"  horiz-adv-x="1024" />

    
    <glyph glyph-name="btn_inf_outstanding" unicode="&#58933;" d="M512-76.79999999999995c-254.4896 0-460.8 206.3104-460.8 460.8S257.5104 844.8 512 844.8s460.8-206.3104 460.8-460.8-206.3104-460.8-460.8-460.8z m20.7872 716.8c-53.76 0-95.8976-15.2832-127.1552-45.824C373.6576 563.6351999999999 358.4 521.472 358.4 467.6352h82.8416c0 30.5408 5.8112 54.528 18.176 71.2704 13.7984 20.3776 36.3264 29.824 68.3008 29.824 24.704 0 44.3136-6.5536 58.112-20.3776 13.0816-13.824 20.352-32.7168 20.352-56.704 0-18.176-6.528-35.6608-19.6096-51.6608l-8.704-10.1632c-47.2576-42.1888-75.5968-72.7296-85.0432-92.3648-10.1632-19.6352-14.5408-43.648-14.5408-71.2704V256h83.584v10.1888c0 17.4592 3.6352 32.7168 10.88 47.2576a112.6912 112.6912 0 0 0 29.0816 36.352c34.8672 30.5664 55.936 50.2016 62.464 57.472 17.4592 23.296 26.9056 53.0944 26.9056 89.4464 0 44.3648-14.5408 79.2832-43.5968 104.7296C618.5472 627.6351999999999 580.0192 640 532.7872 640z m-21.12-435.2c-14.5408 0-26.4192-4.736-36.352-14.2336-9.8816-9.4976-14.5152-21.7088-14.5152-36.608 0-14.9504 4.608-27.136 14.5408-36.6336 9.9072-9.4976 21.7856-14.9248 36.352-14.9248 14.5152 0 26.3936 4.736 36.3008 14.2336 9.9328 9.4976 15.2064 22.3744 15.2064 37.2992 0 14.9248-5.2736 27.136-14.5408 36.608-9.9072 9.5232-22.4512 14.2592-36.992 14.2592z"  horiz-adv-x="1024" />

    
    <glyph glyph-name="btn_doc" unicode="&#58934;" d="M91.5456 565.12v-474.7264c0-26.624 22.144-48.2048 49.4592-48.2048h741.9904c27.3152 0 49.4592 21.5808 49.4592 48.2048V516.9408000000001c0 26.624-22.144 48.1792-49.4592 48.1792H91.5456zM882.9952-22.015999999999963H141.0048C77.2608-22.041600000000017 25.6 28.28800000000001 25.6 90.36800000000005V629.376h857.3952c63.744 0 115.4048-50.3296 115.4048-112.4352V90.36800000000005c0-62.1056-51.6608-112.4352-115.4048-112.4352zM458.2656 719.6928a33.408 33.408 0 0 1-23.552 9.6512H141.0048c-25.9584 0-49.4592-27.0592-49.4592-62.8736v-37.12h457.472L458.24 719.7184zM25.6 565.12V666.4704C25.6 735.5904 75.9296 793.6 141.0048 793.6h293.7088c26.5984 0 52.0704-10.4448 70.6816-28.9792l200.448-199.5008H25.6z"  horiz-adv-x="1216" />

    
    <glyph glyph-name="btn_photo" unicode="&#58935;" d="M114.9184 29.235199999999963c-5.248 0-10.5472 1.3312-15.4112 4.1216a29.7728 29.7728 0 0 0-10.9312 41.1136c43.1872 72.5504 74.5728 123.904 93.312 152.6784 12.2368 18.7392 33.8688 50.6368 66.1504 97.4848 35.2256 51.1232 106.1632 64.512 158.1056 29.8496 8.6272-5.7344 16.384-12.5952 23.0912-20.4032l114.56-133.3248a53.4272 53.4272 0 0 1 76.1088-4.608l65.4336 59.8016c46.0032 42.0096 118.1696 39.424 160.896-5.8112 1.2288-1.28 2.432-2.6368 3.584-3.9936l41.1136-47.872a29.696 29.696 0 0 0-3.6352-42.3424 30.8736 30.8736 0 0 0-43.008 3.584l-41.1392 47.872a53.4528 53.4528 0 0 1-76.2112 4.5312l-65.3568-59.6992a122.24 122.24 0 0 0-4.0192-3.5072c-47.9232-39.8592-119.9104-33.8944-160.4096 13.2608l-114.5856 133.3248a53.376 53.376 0 0 1-83.968-4.3776 5380.608 5380.608 0 0 1-65.28-96.2048C215.04 166.6304 184.064 115.96799999999996 141.312 44.108799999999974c-5.6832-9.5488-15.8976-14.848-26.3936-14.848M757.504 602.0352c-26.3168 0-47.6928-20.5568-47.6928-45.824s21.376-45.824 47.6928-45.824c26.2912 0 47.6672 20.5568 47.6672 45.824s-21.376 45.824-47.6672 45.824m0-144.6656c-56.7552 0-102.912 44.3392-102.912 98.8416 0 54.528 46.1568 98.8672 102.912 98.8672 56.7296 0 102.8864-44.3648 102.8864-98.8672 0-54.528-46.1568-98.8416-102.912-98.8416M130.176 698.2144000000001c-25.2672 0-45.824-19.5584-45.824-43.6224v-537.856c0-24.064 20.5568-43.648 45.824-43.648h763.648c25.2672 0 45.824 19.584 45.824 43.6224V654.592c0 24.064-20.5568 43.6224-45.824 43.6224H130.176z m763.648-683.264H130.176c-58.9568 0-106.9056 45.6448-106.9056 101.76V654.592c0 56.1152 47.9488 101.76 106.9056 101.76h763.648c58.9568 0 106.9056-45.6448 106.9056-101.76v-537.856c0-56.1408-47.9488-101.7856-106.9056-101.7856z"  horiz-adv-x="1297" />

    
    <glyph glyph-name="btn_video" unicode="&#58936;" d="M922.0096 669.6192a53.76 53.76 0 0 1-53.632 53.8624H155.6224a53.76 53.76 0 0 1-53.632-53.8624v-548.48a53.76 53.76 0 0 1 53.632-53.8624h712.7552a53.76 53.76 0 0 1 53.632 53.8624V669.6192z m71.5008 0v-548.48c0-69.4016-56.0384-125.696-125.1328-125.696H155.6224c-69.12 0-125.1328 56.2944-125.1328 125.696V669.6192c0 69.4016 56.0128 125.696 125.1328 125.696h712.7552c69.12 0 125.1328-56.2944 125.1328-125.696z m-568.1152-152.9088l193.8432-112.7168-193.8432-112.7168v225.4336z m271.9488-138.2656a29.6704 29.6704 0 0 1 0 51.1232l-291.6096 169.5744c-19.456 11.3152-43.6992-2.8928-43.6992-25.5744v-339.1488c0-22.6816 24.2432-36.864 43.6992-25.5488l291.584 169.5744z"  horiz-adv-x="1241" />

    
    <glyph glyph-name="btn_pic" unicode="&#58939;" d="M611.9424 337.68960000000004c0 70.5024-56.832 127.6416-126.9248 127.6416-70.1184 0-126.9504-57.1392-126.9504-127.6416 0-70.4768 56.832-127.616 126.9504-127.616 70.0928 0 126.9248 57.1392 126.9248 127.616z m139.1104 325.9904h117.4528c70.2976 0 127.2832-57.2928 127.2832-128v-415.4112c0-70.656-56.9856-127.9744-127.2832-127.9744H152.8832C82.5856-7.67999999999995 25.6 49.58720000000005 25.6 120.32000000000005V535.6800000000001c0 70.656 56.9856 127.9744 127.2832 127.9744h47.872l18.176 55.3472A71.0144 71.0144 0 0 0 286.3104 768h379.2128c30.6176 0 57.7792-19.7376 67.3792-48.9984l18.176-55.3216zM684.672 337.664c0-110.848-89.3952-200.7552-199.68-200.7552-110.2592 0-199.6544 89.8816-199.6544 200.7552 0 110.8736 89.3952 200.7552 199.68 200.7552 110.2592 0 199.68-89.856 199.68-200.7552zM287.616 694.8864l-26.0096-79.232c-4.9408-14.976-18.8416-25.088-34.56-25.088H152.9088c-30.1312 0-54.528-24.576-54.528-54.8608v-415.4368c0-30.2848 24.3968-54.8352 54.528-54.8352h715.6224c30.1312 0 54.528 24.5504 54.528 54.8352V535.7056a54.7072 54.7072 0 0 1-54.528 54.8352H724.736a36.3776 36.3776 0 0 0-34.5344 25.1136l-25.984 79.232H287.5904z m589.4144-186.3168c0-20.1984-16.2816-36.5824-36.352-36.5824-20.096 0-36.3776 16.384-36.3776 36.5824s16.2816 36.5568 36.352 36.5568c20.096 0 36.352-16.384 36.352-36.5568z"  horiz-adv-x="1255" />

    
    <glyph glyph-name="icon_account" unicode="&#58940;" d="M776.0128-31.001600000000053H228.48a5.2736 5.2736 0 0 0-5.0944 5.1968c0 102.0672 74.24 191.872 172.7488 208.9472a35.3792 35.3792 0 0 1 28.8768 31.5392 35.7888 35.7888 0 0 1-22.016 36.8896c-105.5744 42.1888-173.824 144.3328-173.824 260.2496 0 154.0352 122.496 279.3472 273.0752 279.3472 150.5536 0 273.0496-125.312 273.0496-279.3472 0-115.9168-68.224-218.0608-173.824-260.2496-14.592-5.8112-23.6032-20.9152-22.016-36.864a35.3536 35.3536 0 0 1 28.928-31.5648c98.4576-17.0752 172.6976-106.88 172.6976-208.9472a5.2736 5.2736 0 0 0-5.0688-5.1968M701.184 225.9456c89.3696 64.64 143.8976 169.7536 143.8976 285.8752 0 193.408-153.8048 350.7456-342.8352 350.7456-189.056 0-342.8608-157.3376-342.8608-350.7456 0-116.1216 54.528-221.2352 143.9232-285.8752C213.1968 178.43200000000002 153.6 82.84159999999997 153.6-25.8048 153.6-68.04480000000001 187.1872-102.39999999999998 228.48-102.39999999999998h547.5328c41.2928 0 74.88 34.3552 74.88 76.5952 0 108.6464-59.5712 204.288-149.7088 251.7504"  horiz-adv-x="1024" />

    
    <glyph glyph-name="icon_list_number" unicode="&#58941;" d="M389.6832 737.664C251.0336 737.664 138.24 624.9472000000001 138.24 486.4a249.8048 249.8048 0 0 1 160.0512-234.0608 37.9136 37.9136 0 0 0-7.4752-72.704c-90.0864-15.2576-158.0032-95.488-158.0032-186.6752l514.1504 0.384c-0.384 90.7776-68.3264 171.0336-158.4128 186.2912a37.9136 37.9136 0 1 0-7.4752 72.704 249.7792 249.7792 0 0 1 160.0512 234.0608c0 138.5216-112.7936 251.2384-251.4432 251.2384m257.28-820.1472h-514.56a75.5712 75.5712 0 0 0-75.52 75.4688c0 98.7904 53.888 186.0608 136.1408 231.68-81.3568 60.6464-130.688 156.3392-130.688 261.76 0 180.352 146.8416 327.0912 327.3472 327.0912 180.48 0 327.3472-146.7392 327.3472-327.0912 0-105.4208-49.3312-201.1136-130.688-261.7344a264.3456 264.3456 0 0 0 136.1408-231.7056 75.5712 75.5712 0 0 0-75.52-75.4688M534.4768 727.3216a324.992 324.992 0 0 1-67.9936 37.8112c53.6576 46.1568 122.6496 73.984 197.888 73.984 170.368 0 308.992-142.7968 308.992-318.2848 0-101.5296-45.6192-193.792-121.0112-252.8512 76.3136-44.8768 126.1312-129.1264 126.1312-224.3072 0-41.344-32.64-74.9568-72.7808-74.9568h-229.0688a271.488 271.488 0 0 1-13.696 77.0304h230.6048c-1.1264 86.2208-63.7952 161.7408-146.6368 176.2048a38.2208 38.2208 0 0 0-31.0528 34.176 38.7584 38.7584 0 0 0 23.68 39.936c90.4448 36.4032 148.9152 124.4928 148.9152 224.4864 0 132.864-104.96 240.9472-233.9584 240.9472a227.456 227.456 0 0 1-120.0128-34.176z"  horiz-adv-x="1024" />

    
    <glyph glyph-name="list_live_icon_more" unicode="&#58942;" d="M717.184 371.20000000000005l-164.7104 164.736a33.28 33.28 0 1 0 47.0528 47.0528l188.2624-188.2624a33.28 33.28 0 0 0 0-47.0528l-188.2624-188.2624a33.28 33.28 0 1 0-47.0528 47.0528l164.7104 164.736z"  horiz-adv-x="1024" />

    
    <glyph glyph-name="read_btn_datalog" unicode="&#58943;" d="M162.9184 665.6C143.616 665.6 128 682.8032000000001 128 704S143.616 742.4 162.9184 742.4h698.1632C880.384 742.4 896 725.1967999999999 896 704S880.384 665.6 861.0816 665.6H162.9184z m0-321.3312c-19.2768 0-34.9184 17.2032-34.9184 38.4 0 21.2224 15.616 38.4 34.9184 38.4h698.1632c19.2768 0 34.9184-17.1776 34.9184-38.4 0-21.1968-15.616-38.4-34.9184-38.4H162.9184z m0-321.3056c-19.2768 0-34.9184 17.1776-34.9184 38.4 0 21.1968 15.616 38.4 34.9184 38.4h698.1632c19.2768 0 34.9184-17.2032 34.9184-38.4 0-21.2224-15.616-38.4-34.9184-38.4H162.9184z"  horiz-adv-x="1059" />

    
    <glyph glyph-name="live_btn_answers" unicode="&#58944;" d="M320 742.4h537.5488a38.4 38.4 0 1 0 0-76.8H320a38.4 38.4 0 0 0 0 76.8z m0-332.8h537.5488a38.4 38.4 0 1 0 0-76.8H320a38.4 38.4 0 0 0 0 76.8z m0-307.2h537.5488a38.4 38.4 0 1 0 0-76.8H320a38.4 38.4 0 0 0 0 76.8z m-153.6 563.2a38.4 38.4 0 1 0 0 76.8 38.4 38.4 0 0 0 0-76.8z m0-332.8a38.4 38.4 0 1 0 0 76.8 38.4 38.4 0 0 0 0-76.8z m0-307.2a38.4 38.4 0 1 0 0 76.8 38.4 38.4 0 0 0 0-76.8z"  horiz-adv-x="1097" />

    
    <glyph glyph-name="read_icon_browse" unicode="&#58945;" d="M512 665.6c252.416 0 460.8-125.7728 460.8-289.152S764.416 87.29600000000005 512 87.29600000000005 51.2 213.0688 51.2 376.448 259.584 665.6 512 665.6z m0-520.704c224.0256 0 401.92 107.3408 401.92 231.552S736 608 512 608c-224.0512 0-401.92-107.3408-401.92-231.552S287.9744 144.89599999999996 512 144.89599999999996z m-113.408 222.464c0-53.376 44.6208-96.64 99.6608-96.64 16.4096 0 29.696-12.9024 29.696-28.8 0-15.9232-13.2864-28.8-29.696-28.8-87.8336 0-159.0528 69.0432-159.0528 154.24 0 85.1968 71.2192 154.24 159.0528 154.24 87.8592 0 159.0784-69.0432 159.0784-154.24 0-15.8976-13.312-28.8-29.696-28.8-16.4096 0-29.696 12.9024-29.696 28.8 0 53.376-44.6208 96.64-99.6864 96.64-55.04 0-99.6608-43.264-99.6608-96.64z"  horiz-adv-x="1616" />

    
    <glyph glyph-name="search_btn_delete" unicode="&#58946;" d="M763.136 567.552v-368.4352a138.6752 138.6752 0 0 0-138.6752-138.6752h-239.1296a138.6752 138.6752 0 0 0-138.6752 138.6752V567.552h-56.064a27.7248 27.7248 0 0 0 0 55.4496h206.1824c12.2624 48.5632 55.9872 84.5312 108.1088 84.5312 52.1472 0 95.872-35.968 108.1344-84.5312H819.2a27.7248 27.7248 0 0 0 0-55.4496h-56.064z m-55.4752 0H302.1312v-368.4352a83.2 83.2 0 0 1 83.2-83.2h239.104a83.2 83.2 0 0 1 83.2 83.2V567.552z m-153.8304 55.4752a55.9872 55.9872 0 0 1-48.9472 29.056c-20.992 0-39.3472-11.6992-48.9472-29.056h97.8944z m7.1424-196.7616a27.7248 27.7248 0 0 0 55.4752 0v-190.1824a27.7248 27.7248 0 1 0-55.4752 0v190.1824z m-167.6288 0a27.7248 27.7248 0 0 0 55.4496 0v-190.1824a27.7248 27.7248 0 0 0-55.4496 0v190.1824z"  horiz-adv-x="1102" />

    
    <glyph glyph-name="live_btn_close" unicode="&#58947;" d="M572.5184 358.4l242.0224-242.048a42.7776 42.7776 0 0 0-60.5184-60.5184L512 297.9072l-242.048-242.0224a42.7776 42.7776 0 1 0-60.5184 60.5184L451.5072 358.4l-242.0224 242.048a42.7776 42.7776 0 1 0 60.5184 60.5184L512 418.8928l242.048 242.0224a42.7776 42.7776 0 1 0 60.5184-60.5184L572.4928 358.4z"  horiz-adv-x="1024" />

    
    <glyph glyph-name="icon_phone" unicode="&#58948;" d="M736.5888 896a130.4832 130.4832 0 0 0 130.304-130.304v-759.936a130.4832 130.4832 0 0 0-130.304-130.304H271.104A130.4832 130.4832 0 0 0 140.8 5.76V765.696A130.4832 130.4832 0 0 0 271.104 896h465.4848z m0-946.0736a55.9104 55.9104 0 0 1 55.8592 55.8336v104.2432H215.2704v-104.2432c0-30.7968 25.0624-55.8336 55.8592-55.8336h465.4592zM271.104 821.504a55.9104 55.9104 0 0 1-55.8592-55.8592v-581.1968h577.1776V765.696a55.9104 55.9104 0 0 1-55.8592 55.8592H271.104z m232.704-740.6592a46.5408 46.5408 0 1 0 0.0256-93.0816 46.5408 46.5408 0 0 0 0 93.0816z"  horiz-adv-x="1024" />

    
    <glyph glyph-name="icon_list_gm" unicode="&#58950;" d="M1011.96928 667.2384c13.568-15.0272 12.544-38.4-2.176-52.224l-90.624-84.6848a468.5312 468.5312 0 0 0 41.2928-192.6656c0-255.744-204.1088-463.8208-454.9888-463.8208S50.51008 81.89440000000002 50.51008 337.664c0 69.888 15.3344 136.192 42.5984 195.6864L8.57728 635.3408a37.4272 37.4272 0 0 0 4.2752 52.0704 35.7632 35.7632 0 0 0 51.072-4.352l67.6352-81.5872a466.176 466.176 0 0 0 59.2384 70.7328L74.65088 806.1184a37.4528 37.4528 0 0 0 3.1488 52.1728 35.7376 35.7376 0 0 0 51.1488-3.2256l118.016-136.0128a446.3104 446.3104 0 0 0 519.2448-1.6128l136.192 130.816a35.7632 35.7632 0 0 0 51.2512-1.536c13.7472-14.8736 13.056-38.2464-1.536-52.2496L822.47808 669.952c22.4512-22.272 42.752-46.848 60.3392-73.3696l77.952 72.9088c14.7712 13.7984 37.7088 12.7744 51.2-2.2528zM505.49888-52.224000000000046c210.8928 0 382.464 174.8992 382.464 389.9136 0 215.0144-171.5712 389.9392-382.464 389.9392S123.00928 552.6784 123.00928 337.664s171.5712-389.9136 382.464-389.9136z m228.9664 478.0032c11.8784-1.7152 21.76-9.9584 25.4464-21.248a30.976 30.976 0 0 0-7.9616-31.9744l-97.1008-93.6704 22.912-132.2496c2.048-11.7248-2.816-23.552-12.544-30.5152a31.744 31.744 0 0 0-33.1776-2.3808L512.00128 176.17920000000004l-120.0128-62.464c-10.624-5.504-23.4752-4.608-33.1776 2.3808a31.0272 31.0272 0 0 0-12.544 30.5152l22.912 132.2496-97.1008 93.696a30.976 30.976 0 0 0-7.9616 31.9488c3.712 11.2896 13.568 19.5328 25.4464 21.248l134.1696 19.2768 60.0064 120.32c5.3248 10.6752 16.2816 17.408 28.2624 17.408 12.0064 0 22.9632-6.7328 28.2624-17.408l60.0064-120.32 134.1696-19.2768z m-135.4752-113.664l63.232 61.0048-87.3728 12.544a31.488 31.488 0 0 0-23.7312 17.0752L512.00128 481.1008l-39.0656-78.3872a31.488 31.488 0 0 0-23.7568-17.0496l-87.3728-12.5696 63.232-61.0048c7.424-7.168 10.8288-17.4848 9.0624-27.6224l-14.9248-86.1184 78.1568 40.6784a31.7696 31.7696 0 0 0 29.3376 0l78.1568-40.6784-14.9248 86.1184a31.0016 31.0016 0 0 0 9.0624 27.6224z"  horiz-adv-x="1050" />

    
    <glyph glyph-name="icon_list_help" unicode="&#58951;" d="M882.5344 518.7328c0-153.088-91.7248-285.0816-223.0528-344.1664 9.728-14.1568 15.4368-31.2576 15.4368-49.6896v-127.3344a88.1152 88.1152 0 0 0-88.0128-88.0128h-8.1408a33.2544 33.2544 0 0 0-32.9728-30.0288h-81.2288a33.2544 33.2544 0 0 0-32.9728 30.0288h-7.9616a88.1152 88.1152 0 0 0-88.0128 88.0128v127.3344c0 18.432 5.7088 35.5328 15.4368 49.664C219.7248 233.67679999999996 128 365.6704 128 518.7583999999999 128 726.784 297.216 896 505.2672 896c208.0256 0 377.2672-169.216 377.2672-377.2672zM586.9056 143.10400000000004H539.136a380.672 380.672 0 0 0-33.8688-1.6128c-11.4176 0-22.7072 0.6144-33.8688 1.6128h-47.7696a18.432 18.432 0 0 1-18.176-18.2016v-127.3344c0-9.856 8.2944-18.176 18.176-18.176h163.2768a18.432 18.432 0 0 1 18.176 18.176v127.3344a18.432 18.432 0 0 1-18.176 18.176z m-81.664 70.2464c168.448 0 305.408 137.0112 305.408 305.408 0 168.3968-136.96 305.408-305.408 305.408-168.3712 0-305.3824-137.0112-305.3824-305.408 0-168.3968 137.0112-305.408 305.408-305.408zM469.3504 579.8399999999999a35.9424 35.9424 0 0 0 71.8592 0v-162.6368a35.9424 35.9424 0 0 0-71.8592 0v162.6368z m-116.3264-58.624l51.7888-51.8144a35.9424 35.9424 0 0 0-50.8416-50.7904l-51.7632 51.7888a35.9168 35.9168 0 1 0 50.816 50.816z m305.4848 0a35.9168 35.9168 0 1 0 50.7904-50.816l-51.7888-51.7888a35.84 35.84 0 0 0-50.816 0 35.9168 35.9168 0 0 0 0 50.7904l51.8144 51.8144z"  horiz-adv-x="1024" />

    
    <glyph glyph-name="icon_mymeaasage" unicode="&#58952;" d="M576.7936 888.3968c245.376 0 444.9792-203.392 444.9792-453.376 0-230.8096-174.6432-427.1616-399.1808-450.8672l-176.8448-104.0128a58.8288 58.8288 0 0 0-59.8272 0 61.3632 61.3632 0 0 0-29.9264 52.7872v57.984C150.8608 33.5616 0 218.7776 0 434.9952 0 685.0047999999999 199.6032 888.3712 444.9792 888.3712h131.84z m30.8224-828.0576c189.696 16.1792 338.304 180.7616 338.304 374.656 0 207.3856-165.5808 376.1152-369.1264 376.1152h-131.84c-203.52 0-369.1008-168.704-369.1008-376.1152 0-188.8768 138.7776-349.2352 322.8416-372.992l33.152-4.2752v-96.512l167.3216 98.4064 8.448 0.7168zM269.3888 432.384a51.2 51.2 0 1 0 102.4 0 51.2 51.2 0 0 0-102.4 0z m423.3216 0a51.2 51.2 0 1 0 102.4 0 51.2 51.2 0 0 0-102.4 0z m-210.816 0a51.2 51.2 0 1 0 102.4 0 51.2 51.2 0 0 0-102.4 0z"  horiz-adv-x="1024" />

    
    <glyph glyph-name="btn_homepage" unicode="&#58953;" d="M829.926 82.995c0-45.824-36.326-82.995-81.075-82.995H602.675c-18.534 0-33.177 16.128-31.846 35.072 0.114 1.508 0.173 3.02 0.179 4.531v129.05c0 33.382-26.445 60.467-59.06 60.467-32.588 0-59.033-27.085-59.033-60.467v-129.05c0-1.536 0.051-3.02 0.154-4.531C454.426 16.128000000000043 439.782 0 421.222 0H275.046c-44.748 0-81.05 37.171-81.05 82.995v222.08a93.568 93.568 0 0 0-69.478 34.611c-33.51 40.884-28.364 101.863 11.52 136.09l313.677 269.542c19.303 16.59 43.853 24.397 66.688 22.375a92.595 92.595 0 0 0 57.754-22.503l313.728-269.516c39.936-34.304 45.133-95.079 11.52-136.116A93.62 93.62 0 0 0 829.9 305.04999999999995v-222.055h0.025z m-81.075-17.613a17.408 17.408 0 0 1 17.203 17.613V345.03700000000003c0 24.627 25.6 40.397 46.848 28.928 12.544-6.784 28.288-3.712 37.581 7.629 10.94 13.212 9.326 32.743-3.635 43.98L533.146 695.117c-5.3 4.531-11.776 7.014-20.301 7.296a29.696 29.696 0 0 1-22.067-7.168L177.075 425.65c-12.8-11.008-14.49-30.72-3.635-43.955 9.395-11.469 24.986-14.515 37.53-7.68 21.248 11.52 46.899-4.25 46.899-28.928V82.97000000000003c0-9.728 7.68-17.613 17.177-17.613h113.997v103.27c0 69.504 55.04 125.85 122.906 125.85 67.891 0 122.905-56.32 122.905-125.85v-103.27h113.997v0.025z"  horiz-adv-x="1092" />

    
    <glyph glyph-name="mypage_homepage" unicode="&#58955;" d="M879.9488 493.2352c0-139.1104-76.3904-260.608-189.3376-325.0688 88.9088-38.7072 184.3968-116.736 205.3632-211.0208 4.8896-21.9904-8.96-43.776-30.9248-48.64-21.9904-4.9408-42.1632 9.5744-48.64 30.9248-31.8208 104.6528-144.1536 173.4144-250.1632 173.4144h-121.0112c-107.648 0-223.8464-81.5616-250.8544-176.8192-5.3248-18.7904-20.9408-32.5632-39.8848-32.5632a41.0112 41.0112 0 0 0-39.9616 48.9984c17.2544 91.648 115.9168 176.64 206.336 215.8336-112.8192 64.512-189.0816 185.9328-189.0816 324.9408 0 206.2592 167.808 374.0928 374.0672 374.0928 5.4272 0 10.7776 0.0512 16.128 0.1024 11.008 0.128 22.4 0.256 33.9712-0.128l32.3584-0.9728c110.976-3.328 182.3488-5.6064 195.1488-6.8352 10.9056-1.024 20.9408-6.4512 27.8272-14.976 11.776-14.592 11.3408-23.7568 7.808-95.104-0.768-15.2832-1.8176-36.608-2.0224-48.5376a371.5072 371.5072 0 0 0 62.8736-207.616zM505.856 785.7664c-161.28 0-292.5312-131.2256-292.5312-292.5312 0-161.28 131.2256-292.5312 292.5312-292.5312 161.3312 0 292.5568 131.2256 292.5568 292.5312 0 61.44-18.8416 120.2432-54.4512 170.0096-10.0864 14.08-9.6512 22.784-6.3232 90.2144 0.4096 7.936 0.8704 17.4336 1.28 26.5216-45.2096 1.6128-118.9888 3.84-153.0368 4.8384l-32.5888 0.9728c-4.864 0.1536-9.7536 0.2048-14.7712 0.2048-5.12 0-10.3168-0.0512-15.6928-0.1024-5.632-0.0512-11.264-0.128-16.9728-0.128z m157.1072-330.24a112.9984 112.9984 0 0 0-112.8704-112.896 112.9984 112.9984 0 0 0-112.8704 112.896 29.1328 29.1328 0 1 0 58.24 0c0-30.1312 24.4992-54.6304 54.6304-54.6304a54.6816 54.6816 0 0 1 54.6304 54.6304 29.1328 29.1328 0 1 0 58.24 0z"  horiz-adv-x="1024" />

    
    <glyph glyph-name="btn_comment" unicode="&#58956;" d="M59.392 389.1712c0-202.1632 131.7888-347.392 361.728-398.72l41.3952-43.264c9.2416-10.3936 22.5536-16.3072 36.7104-16.3072 14.1568 0 27.4432 5.9392 36.6848 16.3328l41.4976 43.3664c226.5088 52.992 361.6512 201.856 361.6512 398.592 0 226.048-197.3248 409.9584-439.8336 409.9584-242.5344 0-439.8336-183.8848-439.8336-409.9584zM531.0208 36.60799999999995L499.2 3.379199999999969l-31.7184 33.1264a57.856 57.856 0 0 1-29.5168 16.4608c-201.5744 44.288-312.576 163.712-312.576 336.2048 0 190.464 167.68 345.3696 373.8112 345.3696 206.1056 0 373.8112-154.9312 373.8112-345.344 0-165.376-117.0432-291.0976-313.088-336.2816-11.1872-2.56-21.1968-8.2176-28.928-16.3072z m-196.8128 389.1968c-23.3984 0-42.368-18.2016-42.368-40.704 0-22.4768 18.9696-40.704 42.368-40.704s42.368 18.2272 42.368 40.704c0 22.5024-18.9696 40.704-42.368 40.704z m171.7248 0c-23.3984 0-42.368-18.2016-42.368-40.704 0-22.4768 18.944-40.704 42.368-40.704 23.3728 0 42.3424 18.2272 42.3424 40.704 0 22.5024-18.944 40.704-42.3424 40.704z m117.504-40.704c0-22.4768 18.944-40.704 42.3424-40.704 23.3984 0 42.368 18.2272 42.368 40.704 0 22.5024-18.9696 40.704-42.368 40.704s-42.3424-18.2016-42.3424-40.704z"  horiz-adv-x="1024" />

    
    <glyph glyph-name="live_icon_question" unicode="&#58967;" d="M512-128C229.2224-128 0 101.2224 0 384S229.2224 896 512 896s512-229.2224 512-512-229.2224-512-512-512z m0 199.1168a56.8832 56.8832 0 1 1 0 113.7664 56.8832 56.8832 0 0 1 0-113.7664z m-5.6832 625.7664a51.2 51.2 0 0 1-51.2-51.2v-352.7168a51.2 51.2 0 0 1 51.2-51.2h11.3664a51.2 51.2 0 0 1 51.2 51.2V645.6832a51.2 51.2 0 0 1-51.2 51.2h-11.3664z"  horiz-adv-x="1024" />

    
    <glyph glyph-name="select" unicode="&#58984;" d="M512 896c282.766222 0 512-229.233778 512-512s-229.233778-512-512-512S0 101.233778 0 384 229.233778 896 512 896zM232.732444 338.119111l161.166223-172.686222c10.609778-11.377778 28.216889-11.548444 39.253333-0.284445l372.992 380.017778a14.535111 14.535111 0 0 1 0.170667 20.195556l-12.515556 12.743111a15.246222 15.246222 0 0 1-20.48 0.796444L434.744889 286.862222c-12.003556-10.353778-31.544889-10.638222-43.861333-0.853333L266.24 384.910222a13.169778 13.169778 0 0 1-19.2-2.588444l-15.900444-22.414222a18.119111 18.119111 0 0 1 1.592888-21.788445z"  horiz-adv-x="1024" />

    
    <glyph glyph-name="icon_password1" unicode="&#58985;" d="M199.68 353.28v-337.92c0-16.952889 13.767111-30.72 30.72-30.72h573.44a30.72 30.72 0 0 1 30.72 30.72V353.28H199.68z m-20.48 71.68h675.84a51.2 51.2 0 0 0 51.2-51.2v-358.4a102.4 102.4 0 0 0-102.4-102.4H230.4a102.4 102.4 0 0 0-102.4 102.4v358.4a51.2 51.2 0 0 0 51.2 51.2z m578.56 81.92a35.84 35.84 0 1 0-71.68 0V636.074667c0 89.571556-75.377778 162.645333-168.96 162.645333-93.582222 0-168.96-73.102222-168.96-162.645333v-129.194667a35.84 35.84 0 1 0-71.68 0V636.074667C276.48 765.724444 384.455111 870.4 517.12 870.4c132.664889 0 240.64-104.675556 240.64-234.325333v-129.194667z"  horiz-adv-x="1024" />

    
    <glyph glyph-name="icon_loginout" unicode="&#58986;" d="M750.762667 439.466667l-111.985778 90.567111a42.666667 42.666667 0 1 0 53.646222 66.332444l216.689778-175.189333a42.666667 42.666667 0 0 0 0-66.332445l-216.689778-175.217777a42.666667 42.666667 0 0 0-53.646222 66.360889l133.745778 108.145777H396.8a42.666667 42.666667 0 0 0 0 85.333334h353.962667zM870.4 17.066667a42.666667 42.666667 0 0 0 0-85.333334H256a145.066667 145.066667 0 0 0-145.066667 145.066667V691.2A145.066667 145.066667 0 0 0 256 836.266667h614.4a42.666667 42.666667 0 0 0 0-85.333334H256a59.733333 59.733333 0 0 1-59.733333-59.733333v-614.4c0-32.995556 26.737778-59.733333 59.733333-59.733333h614.4z"  horiz-adv-x="1024" />

    
    <glyph glyph-name="icon_notice" unicode="&#58987;" d="M396.8 735.772444v27.847112C396.8 829.155556 447.886222 883.2 512 883.2c64.113778 0 115.2-54.016 115.2-119.580444v-27.847112c129.564444-45.312 221.496889-164.408889 221.496889-302.08v-249.201777c41.728-48.526222 60.103111-76.629333 60.103111-100.892445 0-39.537778-32.910222-70.798222-72.533333-70.798222h-169.528889c-17.521778-70.001778-81.863111-121.742222-158.236445-121.742222-76.344889 0-140.686222 51.740444-158.179555 121.742222H187.704889c-39.594667 0-72.504889 31.232-72.504889 70.798222 0 22.584889 17.294222 48.924444 60.103111 100.494222v249.6c0 137.671111 91.932444 256.768 221.496889 302.08z m76.8 17.294223c28.928 2.645333 57.258667 3.157333 76.8 0.284444v10.24c0 24.120889-17.692444 42.808889-38.4 42.808889-20.707556 0-38.4-18.688-38.4-42.780444v-10.524445zM432.071111 12.8a86.442667 86.442667 0 0 1 76.430222-44.942222 86.471111 86.471111 0 0 1 76.458667 44.942222H432.071111zM252.103111 433.692444v-263.537777c0-9.045333-3.185778-17.806222-8.988444-24.746667-19.342222-22.983111-33.706667-41.244444-42.951111-54.556444-0.199111-0.284444 208.298667-0.711111 625.493333-1.251556a212.650667 212.650667 0 0 1-1.820445 2.673778c-9.073778 13.056-23.267556 30.663111-42.439111 52.565333a38.4 38.4 0 0 0-9.500444 25.315556v263.537777c0 122.595556-98.019556 227.242667-229.148445 243.114667-13.596444 2.417778-39.651556 1.962667-64.113777-0.398222-128.739556-15.729778-226.531556-120.263111-226.531556-242.716445z"  horiz-adv-x="1024" />

    
    <glyph glyph-name="icon_list_change1" unicode="&#58988;" d="M679.708444 654.734222c0 19.825778 16.071111 35.925333 35.925334 35.925334 169.699556 0 307.740444-138.040889 307.740444-307.740445 0-169.671111-138.040889-307.740444-307.740444-307.740444h-91.164445l42.097778-35.925334a35.925333 35.925333 0 1 0-46.648889-54.670222l-116.252444 99.214222a35.925333 35.925333 0 0 0-0.426667 54.328889l112.867556 99.157334a35.953778 35.953778 0 0 0 47.445333-53.959112l-41.272889-36.266666h93.354667c130.048 0 235.861333 105.813333 235.861333 235.861333 0 130.076444-105.813333 235.861333-235.861333 235.861333a35.925333 35.925333 0 0 0-35.925334 35.953778z m-150.471111-34.958222l-116.252444-99.185778a35.84 35.84 0 0 0-50.631111 4.010667 35.925333 35.925333 0 0 0 3.982222 50.631111l51.057778 43.576889h-109.653334c-130.076444 0-235.889778-105.813333-235.889777-235.889778 0-130.048 105.813333-235.861333 235.889777-235.861333a35.925333 35.925333 0 0 0 0-71.879111C138.040889 75.178667 0 213.248 0 382.947556 0 552.590222 138.040889 690.631111 307.740444 690.631111h94.208l-32.568888 28.643556a35.925333 35.925333 0 1 0 47.416888 53.987555l112.867556-99.185778a35.982222 35.982222 0 0 0-0.398222-54.328888z"  horiz-adv-x="1024" />

    
    <glyph glyph-name="icon_writing" unicode="&#58989;" d="M457.671111 154.396444h-141.852444c-19.626667 0-35.555556 15.928889-35.555556 35.555556v136.277333c0 4.096 0.711111 8.049778 1.991111 11.690667a35.555556 35.555556 0 0 0 9.472 34.986667L616.675556 689.066667H291.185778c-84.48 0-151.893333-62.208-151.893334-137.443556v-541.013333h558.051556c83.683556 0 151.04 64.967111 151.04 144.497778v192.113777a35.555556 35.555556 0 1 0 71.111111 0v-192.113777c0-119.381333-99.754667-215.608889-222.151111-215.608889H103.708444a35.555556 35.555556 0 0 0-32.199111 50.631111 35.413333 35.413333 0 0 0-3.328 15.047111v546.417778c0 115.882667 100.437333 208.583111 223.004445 208.583111h398.563555l31.857778 31.004444a137.216 137.216 0 0 0 193.223111 0 135.594667 135.594667 0 0 0 0.113778-192.483555l-432.071111-433.834667a35.441778 35.441778 0 0 0-25.201778-10.467556z m-14.762667 71.111112L864.711111 649.016889a64.512 64.512 0 0 1 0 91.704889 66.161778 66.161778 0 0 1-93.240889-0.256L734.72 704.682667c-2.730667-3.982222-6.257778-7.424-10.325333-10.040889L351.004444 331.406222c0.256-1.706667 0.369778-3.413333 0.369778-5.176889v-100.721777h91.534222z"  horiz-adv-x="1024" />

    
    <glyph glyph-name="btn_record" unicode="&#58990;" d="M823.04 389.888c14.592 0 26.680889-11.776 26.680889-26.083556 0-83.712-31.374222-160.369778-83.2-219.392a347.221333 347.221333 0 0 0-235.747556-116.963555v-79.132445c0-14.222222-11.946667-25.742222-26.652444-25.742222-14.734222 0-26.680889 11.52-26.680889 25.742222v79.132445C299.548444 40.476444 158.520889 186.311111 158.520889 363.804444c0 14.307556 12.088889 26.083556 26.680889 26.083556 14.592 0 26.680889-11.776 26.680889-26.083556 0-157.610667 130.872889-285.468444 292.238222-285.468444 161.336889 0 292.209778 127.857778 292.209778 285.468444 0 14.307556 12.088889 26.083556 26.709333 26.083556z m-318.919111-239.047111c-124.785778 0-227.555556 89.6-227.555556 202.979555V640.625778c0 113.351111 102.741333 202.951111 227.555556 202.951111 124.785778 0 227.555556-89.6 227.555555-202.951111v-286.805334c0-113.379556-102.769778-202.979556-227.555555-202.979555z m0 44.458667c96 0 171.605333 65.905778 171.605333 144.611555V654.506667c0 78.705778-75.633778 144.611556-171.605333 144.611555-96.028444 0-171.605333-65.905778-171.605333-144.611555v-314.595556c0-78.705778 75.605333-144.611556 171.605333-144.611555z"  horiz-adv-x="1024" />

    
    <glyph glyph-name="btn_pause" unicode="&#58991;" d="M290.133333 776.533333a68.266667 68.266667 0 0 0 68.266667-68.266666v-648.533334a68.266667 68.266667 0 1 0-136.533333 0V708.266667a68.266667 68.266667 0 0 0 68.266666 68.266666z m443.733334 0a68.266667 68.266667 0 0 0 68.266666-68.266666v-648.533334a68.266667 68.266667 0 1 0-136.533333 0V708.266667a68.266667 68.266667 0 0 0 68.266667 68.266666z"  horiz-adv-x="1024" />

    
    <glyph glyph-name="btn_play" unicode="&#58992;" d="M290.133333 660.565333v-553.130666a85.333333 85.333333 0 0 1 132.551111-71.111111l416.568889 276.593777a85.333333 85.333333 0 0 1 0 142.165334L422.656 731.648a85.333333 85.333333 0 0 1-132.522667-71.111111z"  horiz-adv-x="1024" />

    
    <glyph glyph-name="btn_stop" unicode="&#58993;" d="M187.733333 708.266667m113.777778 0l420.977778 0q113.777778 0 113.777778-113.777778l0-420.977778q0-113.777778-113.777778-113.777778l-420.977778 0q-113.777778 0-113.777778 113.777778l0 420.977778q0 113.777778 113.777778 113.777778Z"  horiz-adv-x="1024" />

    
    <glyph glyph-name="remake" unicode="&#58994;" d="M525.738667 200.192a184.32 184.32 0 1 1-67.697778 360.106667l33.991111-36.750223a20.48 20.48 0 0 0-30.037333-27.818666l-64 69.12a20.48 20.48 0 0 0 0.284444 28.16l64 66.218666a20.48 20.48 0 0 0 29.468445-28.444444l-25.201778-26.083556A225.28 225.28 0 1 0 512 158.72a20.707556 20.707556 0 0 0-2.360889 0.142222c-17.237333-0.369778-43.804444-0.369778-88.832-0.028444a2150.513778 2150.513778 0 0 1-47.104 0 20.48 20.48 0 1 0-0.796444 40.96c8.305778 0.170667 24.32 0.170667 48.213333 0 60.017778-0.483556 86.528-0.284444 101.518222 0.483555a20.650667 20.650667 0 0 0 3.128889-0.085333zM512-97.28C246.186667-97.28 30.72 118.186667 30.72 384 30.72 649.813333 246.186667 865.28 512 865.28c265.813333 0 481.28-215.466667 481.28-481.28 0-265.813333-215.466667-481.28-481.28-481.28z m0 40.96c243.2 0 440.32 197.12 440.32 440.32S755.2 824.32 512 824.32 71.68 627.2 71.68 384 268.8-56.32 512-56.32z"  horiz-adv-x="1024" />

    
    <glyph glyph-name="send" unicode="&#58995;" d="M901.319111 500.679111a20.48 20.48 0 1 0 32.312889 25.201778c4.380444-5.632 9.557333-16.298667 14.279111-33.223111 7.224889-25.969778 11.434667-60.785778 11.434667-105.898667 0-247.068444-200.277333-447.345778-447.345778-447.345778-247.096889 0-447.345778 200.248889-447.345778 447.345778 0 44.885333 3.413333 79.416889 9.272889 105.045333 3.783111 16.64 7.964444 27.022222 11.52 32.568889a20.48 20.48 0 0 0 34.417778-22.186666c0.199111 0.284444-0.170667-0.426667-0.938667-2.332445-1.649778-4.096-3.384889-9.756444-5.063111-17.152-5.12-22.471111-8.248889-53.959111-8.248889-95.943111 0-224.455111 181.930667-406.385778 406.385778-406.385778 224.426667 0 406.414222 181.930667 406.414222 406.385778 0 41.585778-3.811556 72.760889-9.955555 94.919111a100.977778 100.977778 0 0 1-6.058667 16.782222c-0.881778 1.848889-1.308444 2.503111-1.080889 2.218667zM346.140444 632.149333a20.48 20.48 0 0 0-26.680888 31.089778l179.2 153.6a20.48 20.48 0 0 0 26.680888 0l179.2-153.6a20.48 20.48 0 1 0-26.680888-31.089778L512 774.314667l-165.859556-142.165334z m145.379556-7.509333a20.48 20.48 0 0 0 40.96 0v-384a20.48 20.48 0 0 0-40.96 0V624.64z"  horiz-adv-x="1024" />

    
    <glyph glyph-name="close" unicode="&#58996;" d="M459.377778 759.466667a51.2 51.2 0 0 0 102.4 0v-358.4a51.2 51.2 0 0 0-102.4 0V759.466667zM230.001778 656.042667a38.4 38.4 0 0 0 54.300444-54.300445c-124.956444-124.956444-124.956444-327.594667 0-452.551111 124.956444-124.956444 327.594667-124.956444 452.551111 0 124.956444 124.956444 124.956444 327.594667 0 452.551111a38.4 38.4 0 1 0 54.328889 54.328889c154.936889-154.993778 154.936889-406.215111 0-561.208889-154.993778-154.936889-406.215111-154.936889-561.208889 0-154.936889 154.993778-154.936889 406.215111 0 561.208889z"  horiz-adv-x="1024" />

    
    <glyph glyph-name="record" unicode="&#58997;" d="M826.993778 401.066667c14.392889 0 26.339556-12.060444 26.339555-26.652445 0-85.617778-31.004444-164.010667-82.176-224.369778-57.315556-67.612444-140.003556-112.554667-232.817777-119.580444v-80.924444a26.339556 26.339556 0 1 0-52.679112 0v80.924444C309.959111 43.776 170.666667 192.853333 170.666667 374.414222c0 14.592 11.946667 26.652444 26.339555 26.652445 14.449778 0 26.368-12.060444 26.368-26.652445C223.374222 213.219556 352.625778 82.488889 512 82.488889c159.374222 0 288.625778 130.730667 288.625778 291.925333 0 14.592 11.946667 26.652444 26.368 26.652445zM512 196.266667c-103.793778 0-187.733333 78.08-187.733333 174.648889V670.151111c0 96.540444 83.911111 174.648889 187.733333 174.648889 103.793778 0 187.733333-78.108444 187.733333-174.648889v-299.235555c0-96.568889-83.911111-174.648889-187.733333-174.648889z"  horiz-adv-x="1024" />

    
    <glyph glyph-name="set" unicode="&#58998;" d="M695.9104-70.29759999999999h-364.032a141.312 141.312 0 0 0-122.0608 70.4768l-182.016 315.264a141.312 141.312 0 0 0 0 140.928l182.016 315.264a141.312 141.312 0 0 0 122.0608 70.4768h364.032a141.3632 141.3632 0 0 0 122.0608-70.4768l182.016-315.264a141.312 141.312 0 0 0 0-140.928l-182.016-315.264a141.3632 141.3632 0 0 0-122.0608-70.4768zM331.8784 770.2528c-24.576 0-47.5136-13.2352-59.8272-34.56l-182.016-315.2384a69.2992 69.2992 0 0 1 0-69.0944l182.016-315.2384a69.248 69.248 0 0 1 59.8272-34.56h364.032c24.576 0 47.5136 13.2352 59.8272 34.56l182.016 315.2384c12.288 21.3248 12.288 47.7952 0 69.0944L755.712 735.6928a69.3248 69.3248 0 0 1-59.8272 34.56h-364.032z m189.1072-583.8592c-108.9536 0-197.632 88.6272-197.632 197.6064 0 108.9536 88.6784 197.632 197.632 197.632 108.9792 0 197.632-88.6784 197.632-197.632 0-108.9792-88.6528-197.632-197.632-197.632z m0 323.3536A125.9008 125.9008 0 0 1 395.264 384a125.9008 125.9008 0 0 1 125.7472-125.7472A125.9008 125.9008 0 0 1 646.7328 384a125.9008 125.9008 0 0 1-125.7472 125.7472z"  horiz-adv-x="1117" />

    
    <glyph glyph-name="unselect" unicode="&#58999;" d="M512 867.555556C244.935111 867.555556 28.444444 651.064889 28.444444 384s216.490667-483.555556 483.555556-483.555556 483.555556 216.490667 483.555556 483.555556S779.064889 867.555556 512 867.555556z m0 28.444444c282.766222 0 512-229.233778 512-512s-229.233778-512-512-512S0 101.233778 0 384 229.233778 896 512 896z"  horiz-adv-x="1024" />

    
    <glyph glyph-name="add" unicode="&#59000;" d="M470.272 425.728V655.160889a41.728 41.728 0 0 0 83.456 0v-229.432889h229.432889a41.728 41.728 0 0 0 0-83.456h-229.432889v-229.432889a41.728 41.728 0 0 0-83.456 0v229.432889H240.839111a41.728 41.728 0 0 0 0 83.456h229.432889z"  horiz-adv-x="1024" />

    
    <glyph glyph-name="btn_like_nor" unicode="&#59001;" d="M202.480941 475.888941c-38.550588 0-69.933176-30.298353-69.933176-67.584v-332.980706c0-37.255529 31.382588-67.553882 69.933176-67.553882h523.203765c34.876235 0 65.355294 22.799059 74.089412 55.476706L891.482353 406.226824a53.910588 53.910588 0 0 1-9.517177 47.073882 58.036706 58.036706 0 0 1-46.501647 22.588235h-182.211764a36.141176 36.141176 0 0 0-30.930824 54.904471c21.383529 35.237647 20.269176 111.134118 19.757177 147.57647-0.090353 6.083765-0.180706 11.535059-0.180706 16.173177 0.783059 42.616471-17.046588 74.571294-47.676236 86.196706a56.079059 56.079059 0 0 1-51.802352-5.842824c-15.510588-10.691765-24.064-28.220235-24.064-49.27247l-0.030118-1.716706c-0.150588-3.041882-3.614118-75.203765-9.216-108.544-8.161882-49.152-50.688-92.852706-116.555294-119.898353-20.48-8.432941-51.651765-19.576471-86.256941-19.576471H202.480941z m523.203765-540.461176H202.480941C124.084706-64.572235 60.235294-1.807059 60.235294 75.324235V408.304941c0 77.161412 63.819294 139.926588 142.245647 139.926588h103.81553c16.865882 0 34.966588 4.336941 58.759529 14.125177 40.990118 16.835765 68.879059 41.682824 72.734118 64.873412 3.975529 23.913412 7.258353 78.998588 8.252235 99.328 0.301176 44.483765 20.389647 83.787294 55.326118 107.881411a128.361412 128.361412 0 0 0 118.512941 13.914353c59.512471-22.588235 95.653647-81.769412 94.32847-154.473411 0-3.674353 0.090353-8.764235 0.180706-14.456471 0.512-34.665412 1.204706-85.594353-9.216-131.192471h130.288941c41.170824 0 79.058824-18.552471 103.875765-50.898823a125.680941 125.680941 0 0 0 21.985882-109.778824l-91.708235-343.009882c-17.167059-64.240941-76.348235-109.116235-143.932235-109.116235zM278.046118-28.400941h72.31247v529.769412H278.046118z"  horiz-adv-x="1024" />

    
    <glyph glyph-name="icon_phone1" unicode="&#59002;" d="M749.3888 896a130.4832 130.4832 0 0 0 130.304-130.304v-759.936a130.4832 130.4832 0 0 0-130.304-130.304H283.904A130.4832 130.4832 0 0 0 153.6 5.76V765.696A130.4832 130.4832 0 0 0 283.904 896h465.4848z m0-946.0736a55.9104 55.9104 0 0 1 55.8592 55.8336v104.2432H228.0704v-104.2432c0-30.7968 25.0624-55.8336 55.8592-55.8336h465.4592zM283.904 821.504a55.9104 55.9104 0 0 1-55.8592-55.8592v-581.1968h577.1776V765.696a55.9104 55.9104 0 0 1-55.8592 55.8592H283.904z m232.704-740.6592a46.5408 46.5408 0 1 0 0.0256-93.0816 46.5408 46.5408 0 0 0 0 93.0816z"  horiz-adv-x="1024" />

    
    <glyph glyph-name="icon_meassage" unicode="&#59003;" d="M834.0736 188.9536a36.9152 36.9152 0 0 0 73.8048 0v-161.6384a129.28 129.28 0 0 0-129.152-129.152H214.5024a129.28 129.28 0 0 0-129.1776 129.152V729.1648a129.28 129.28 0 0 0 129.152 129.152h564.224a129.28 129.28 0 0 0 129.1776-129.152v-172.288a36.9152 36.9152 0 0 0-73.8048 0v172.288c0 30.5408-24.832 55.3728-55.3472 55.3728H214.5024c-30.5408 0-55.3728-24.832-55.3728-55.3728v-701.8496c0-30.5152 24.832-55.3472 55.3472-55.3472h564.224c30.5408 0 55.3728 24.832 55.3728 55.3472v161.6384z m-251.904-92.8256l-147.456 147.456a38.8608 38.8608 0 0 0 0 54.8096 38.8608 38.8608 0 0 0 54.784 0l120.064-120.064 285.3376 285.3376a38.8864 38.8864 0 0 0 54.784 0 38.912 38.912 0 0 0 0-54.8096L637.0048 96.128a38.8608 38.8608 0 0 0-54.784 0z"  horiz-adv-x="1024" />

    
    <glyph glyph-name="bnt_order" unicode="&#59004;" d="M643.456 681.856c2.6112-1.4592 5.0688-3.328 7.2704-5.5296l141.3888-141.3632a33.28 33.28 0 1 0-47.0784-47.0784L647.68 585.2672V102.4a33.28 33.28 0 1 0-66.56 0V665.6a33.28 33.28 0 0 0 62.336 16.256zM417.28 108.032a33.2544 33.2544 0 0 0-56.2432-29.7472l-141.3632 141.3888a33.28 33.28 0 1 0 47.0528 47.0528l83.9936-83.968V665.6a33.28 33.28 0 1 0 66.56 0v-557.568z"  horiz-adv-x="1024" />

    
    <glyph glyph-name="icon_complete" unicode="&#59005;" d="M497.3824 183.552a55.04 55.04 0 0 1 9.5232 7.6032L770.6624 454.912a54.8608 54.8608 0 0 1-77.568 77.568l-246.7072-246.6816-115.0208 115.0464a54.8608 54.8608 0 0 1-77.568-77.568l155.136-155.1616a54.8608 54.8608 0 0 1 88.448 15.4112zM512 844.8c254.4896 0 460.8-206.3104 460.8-460.8s-206.3104-460.8-460.8-460.8S51.2 129.5104 51.2 384 257.5104 844.8 512 844.8z"  horiz-adv-x="1024" />

    
    <glyph glyph-name="me_icon_edit_chevron" unicode="&#59021;" d="M843.712 384l-395.2-387.136a72.064 72.064 0 0 1 0-103.424 75.776 75.776 0 0 1 105.6 0l448 438.848a72.064 72.064 0 0 1 0 103.424l-448 438.848a75.776 75.776 0 0 1-105.6 0 72.064 72.064 0 0 1 0-103.424L843.712 384z"  horiz-adv-x="1024" />

    


  </font>
</defs>
</svg>
