<?xml version="1.0" standalone="no"?>
<!DOCTYPE svg PUBLIC "-//W3C//DTD SVG 1.1//EN" "http://www.w3.org/Graphics/SVG/1.1/DTD/svg11.dtd" >
<!--
2013-9-30: Created.
-->
<svg>
<metadata>
Created by iconfont
</metadata>
<defs>

<font id="iconfont" horiz-adv-x="1024" >
  <font-face
    font-family="iconfont"
    font-weight="500"
    font-stretch="normal"
    units-per-em="1024"
    ascent="896"
    descent="-128"
  />
    <missing-glyph />
    
    <glyph glyph-name="bar_icon_search" unicode="&#58930;" d="M798.128052 149.276355l195.343196-195.310165a47.960487 47.960487 0 1 0-67.844931-67.844931l-198.745352 198.745351a445.38513 445.38513 0 0 0-262.692668-85.219047C216.920937-0.352437 16.457992 200.275661 16.457992 447.774236S216.920937 896 464.188297 896 911.918602 695.338871 911.918602 447.807266c0-114.649346-43.038922-219.257378-113.79055-298.530911z m-333.939755-53.608726c194.286216 0 351.7763 157.655238 351.7763 352.139637S658.474513 799.946903 464.188297 799.946903c-194.286216 0-351.7763-157.655238-351.7763-352.106606 0-194.51743 157.490084-352.172668 351.7763-352.172668z"  horiz-adv-x="1024" />

    
    <glyph glyph-name="btn_packup_task" unicode="&#58931;" d="M938.476272 571.971506l-701.293897-663.328473c-51.445282-48.629869-134.798584-48.629869-186.243866 0l-12.370756 11.773547a119.783045 119.783045 0 0 0 0 176.091314L845.396997 859.570256c51.359967 48.629869 134.798584 48.629869 186.15855 0l806.829244-763.062362c51.445282-48.629869 51.445282-127.461446 0-176.091314l-12.370756-11.773547c-51.445282-48.629869-134.798584-48.629869-186.243866 0L938.476272 571.971506z"  horiz-adv-x="1877" />

    
    <glyph glyph-name="btn_link" unicode="&#58932;" d="M293.698814-127.999431a292.959305 292.959305 0 0 0-207.773565 85.896806c-114.566998 114.566998-114.566998 300.95169 0 415.490245l158.425566 158.425566a41.469385 41.469385 0 1 0 58.648746-58.648746l-158.425566-158.425566c-82.199261-82.199261-82.199261-215.965049 0-298.192753 82.227704-82.199261 216.021934-82.199261 298.249638 0l158.425566 158.425566a41.469385 41.469385 0 0 0 58.648746-58.648746l-158.425566-158.425566A292.930862 292.930862 0 0 0 293.698814-127.999431z m440.86109 336.163692a41.440942 41.440942 0 0 0-29.29593 70.793758l174.268122 174.211237a209.309469 209.309469 0 0 1 61.436126 149.124819 209.281026 209.281026 0 0 1-61.436126 149.067934 209.366354 209.366354 0 0 1-149.124819 61.464569c-56.54399 0-109.504206-21.815513-149.153262-61.436126l-174.268122-174.23968a41.440942 41.440942 0 1 0-58.620304 58.648746l174.23968 174.23968c114.566998 114.538555 300.980133 114.538555 415.547131 0A291.736271 291.736271 0 0 0 1023.935435 602.294075c0-78.672373-30.462079-152.452609-85.754593-207.745122l-174.268122-174.23968a41.327172 41.327172 0 0 0-29.324373-12.145012z m-378.401028-21.531087a41.440942 41.440942 0 0 0-29.295931 70.793758l311.731455 311.731455a41.440942 41.440942 0 1 0 58.648746-58.648746l-311.759897-311.731455a41.327172 41.327172 0 0 0-29.295931-12.145012z"  horiz-adv-x="1024" />

    
    <glyph glyph-name="btn_inf_outstanding" unicode="&#58933;" d="M512-128C229.233778-128 0 101.233778 0 384S229.233778 896 512 896s512-229.233778 512-512-229.233778-512-512-512z m23.096889 796.444444c-59.733333 0-106.552889-16.981333-141.283556-50.915555C358.286222 583.594667 341.333333 536.746667 341.333333 476.928h92.046223c0 33.934222 6.456889 60.586667 20.195555 79.189333 15.331556 22.641778 40.362667 33.137778 75.889778 33.137778 27.448889 0 49.237333-7.281778 64.568889-22.641778 14.535111-15.36 22.613333-36.352 22.613333-63.004444 0-20.195556-7.253333-39.623111-21.788444-57.400889l-9.671111-11.292444c-52.508444-46.876444-83.996444-80.810667-94.492445-102.627556-11.292444-21.816889-16.156444-48.497778-16.156444-79.189333V241.777778h92.871111v11.320889c0 19.399111 4.039111 36.352 12.088889 52.508444a125.212444 125.212444 0 0 0 32.312889 40.391111c38.741333 33.962667 62.151111 55.779556 69.404444 63.857778 19.399111 25.884444 29.895111 58.993778 29.895111 99.384889 0 49.294222-16.156444 88.092444-48.440889 116.366222C630.385778 654.705778 587.576889 668.444444 535.096889 668.444444z m-23.466667-483.555555c-16.156444 0-29.354667-5.262222-40.391111-15.815111-10.979556-10.552889-16.128-24.120889-16.128-40.675556 0-16.611556 5.12-30.151111 16.156445-40.704 11.008-10.552889 24.206222-16.583111 40.391111-16.583111 16.128 0 29.326222 5.262222 40.334222 15.815111 11.036444 10.552889 16.896 24.860444 16.896 41.443556 0 16.583111-5.859556 30.151111-16.156445 40.675555-11.008 10.581333-24.945778 15.843556-41.102222 15.843556z"  horiz-adv-x="1024" />

    
    <glyph glyph-name="btn_doc" unicode="&#58934;" d="M82.432 610.4v-593.408c0-33.28 27.68-60.256 61.824-60.256h927.488c34.144 0 61.824 26.976 61.824 60.256V550.176c0 33.28-27.68 60.224-61.824 60.224H82.432zM1071.744-123.52H144.256C64.576-123.552 0-60.64 0 16.96V690.72h1071.744c79.68 0 144.256-62.912 144.256-140.544V16.96c0-77.632-64.576-140.544-144.256-140.544zM540.832 803.616a41.76 41.76 0 0 1-29.44 12.064H144.256c-32.448 0-61.824-33.824-61.824-78.592v-46.4h571.84L540.8 803.648zM0 610.4V737.088C0 823.488 62.912 896 144.256 896h367.136c33.248 0 65.088-13.056 88.352-36.224l250.56-249.376H0z"  horiz-adv-x="1216" />

    
    <glyph glyph-name="btn_photo" unicode="&#58935;" d="M121.617067-108.270933a39.594667 39.594667 0 0 0-20.445867 5.700266 42.018133 42.018133 0 0 0-14.506667 56.763734c57.275733 100.215467 98.952533 171.178667 123.835734 210.875733 16.213333 25.9072 44.919467 69.973333 87.722666 134.621867 46.762667 70.621867 140.9024 89.088 209.851734 41.301333 11.434667-7.953067 21.742933-17.442133 30.6176-28.228267l152.029866-184.149333a68.949333 68.949333 0 0 1 101.034667-6.3488l86.766933 82.602667a148.821333 148.821333 0 0 0 218.282667-13.550934l54.5792-66.116266c14.4384-17.5104 12.288-43.690667-4.8128-58.4704-17.1008-14.779733-42.666667-12.5952-57.1392 4.9152l-54.5792 66.1504a68.949333 68.949333 0 0 1-101.137067 6.2464l-86.698666-82.466134a148.821333 148.821333 0 0 0-218.2144 13.448534l-152.029867 184.183466a69.085867 69.085867 0 0 1-111.445333-6.0416 7455.880533 7455.880533 0 0 1-86.596267-132.9152c-24.302933-38.741333-65.365333-108.7488-122.094933-207.9744-7.543467-13.175467-21.0944-20.548267-35.0208-20.548266M974.301867 682.837333A63.351467 63.351467 0 0 1 911.018667 619.52c0-34.884267 28.398933-63.249067 63.2832-63.249067A63.351467 63.351467 0 0 1 1037.550933 619.52a63.351467 63.351467 0 0 1-63.249066 63.2832m0-199.816533c-75.298133 0-136.533333 61.269333-136.533334 136.533333 0 75.298133 61.2352 136.533333 136.533334 136.533333 75.264 0 136.533333-61.2352 136.533333-136.533333 0-75.264-61.269333-136.533333-136.533333-136.533333M141.858133 815.684267c-33.518933 0-60.791467-26.999467-60.791466-60.245334v-742.877866c0-33.245867 27.272533-60.245333 60.791466-60.245334h1013.3504c33.518933 0 60.791467 26.999467 60.791467 60.245334V755.438933c0 33.245867-27.272533 60.245333-60.791467 60.245334H141.858133zM1155.208533-128H141.858133C63.624533-128 0-64.955733 0 12.561067V755.438933C0 832.9216 63.624533 896 141.858133 896h1013.3504C1233.442133 896 1297.066667 832.955733 1297.066667 755.438933v-742.877866C1297.066667-64.9216 1233.442133-128 1155.208533-128z"  horiz-adv-x="1297" />

    
    <glyph glyph-name="btn_video" unicode="&#58936;" d="M1131.768242 729.243152c0 36.926061-29.913212 66.870303-66.839272 66.870303H176.252121c-36.926061 0-66.839273-29.944242-66.839273-66.870303V48.252121c0-36.926061 29.913212-66.839273 66.839273-66.839273H1064.96c36.926061 0 66.839273 29.944242 66.839273 66.839273V729.243152z m89.150061 0V48.252121a156.020364 156.020364 0 0 0-155.989333-155.989333H176.252121A156.020364 156.020364 0 0 0 20.293818 48.252121V729.243152A156.020364 156.020364 0 0 0 176.252121 885.263515H1064.96a156.020364 156.020364 0 0 0 155.989333-156.020363z m-714.100364-181.837576L760.025212 399.515152l-253.207273-147.859394v295.718787z m343.877819-179.758546c24.203636 14.118788 24.203636 49.617455 0 63.736243L488.665212 642.823758C464.523636 656.911515 434.424242 639.224242 434.424242 610.924606v-422.818909c0-28.299636 30.099394-45.986909 54.24097-31.899152l362.030546 211.440485z"  horiz-adv-x="1241" />

    
    <glyph glyph-name="btn_search" unicode="&#58937;" d="M798.128052 149.276355l195.343196-195.310165a47.960487 47.960487 0 1 0-67.844931-67.844931l-198.745352 198.745351a445.38513 445.38513 0 0 0-262.692668-85.219047C216.920937-0.352437 16.457992 200.275661 16.457992 447.774236S216.920937 896 464.188297 896 911.918602 695.338871 911.918602 447.807266c0-114.649346-43.038922-219.257378-113.79055-298.530911z m-333.939755-53.608726c194.286216 0 351.7763 157.655238 351.7763 352.139637S658.474513 799.946903 464.188297 799.946903c-194.286216 0-351.7763-157.655238-351.7763-352.106606 0-194.51743 157.490084-352.172668 351.7763-352.172668z"  horiz-adv-x="1024" />

    
    <glyph glyph-name="icon_authcode" unicode="&#58938;" d="M828.577684 181.706105a38.858105 38.858105 0 0 0 77.689263 0v-170.172631a136.084211 136.084211 0 0 0-135.949473-135.949474H176.397474A136.084211 136.084211 0 0 0 40.421053 11.533474V750.349474A136.084211 136.084211 0 0 0 176.370526 886.298947h593.92a136.084211 136.084211 0 0 0 135.976421-135.949473v-181.35579a38.858105 38.858105 0 0 0-77.689263 0v181.35579c0 32.121263-26.138947 58.260211-58.26021 58.26021H176.397474c-32.148211 0-58.287158-26.138947-58.287158-58.26021v-738.816c0-32.121263 26.138947-58.260211 58.26021-58.260211h593.92c32.148211 0 58.287158 26.138947 58.287158 58.260211v170.172631z m-265.162105-97.738105l-155.24379 155.216842a40.906105 40.906105 0 0 0 0 57.721263 40.906105 40.906105 0 0 0 57.694316 0l126.383158-126.383158 300.355369 300.328421a40.933053 40.933053 0 0 0 57.667368 0 40.96 40.96 0 0 0 0-57.694315L621.082947 83.968a40.906105 40.906105 0 0 0-57.667368 0z"  horiz-adv-x="1024" />

    
    <glyph glyph-name="btn_pic" unicode="&#58939;" d="M756.570839 340.760774c0 90.970839-73.331613 164.698839-163.773936 164.698839-90.475355 0-163.806968-73.728-163.806968-164.698839 0-90.937806 73.331613-164.665806 163.806968-164.665806 90.442323 0 163.773935 73.728 163.773936 164.665806z m179.49729 420.632774h151.552c90.706581 0 164.236387-73.926194 164.236387-165.16129v-536.014452c0-91.169032-73.529806-165.128258-164.236387-165.128258H164.236387C73.529806-104.877419 0-30.984258 0 60.283871V596.232258c0 91.169032 73.529806 165.128258 164.236387 165.128258h61.770323l23.452903 71.415742A91.631484 91.631484 0 0 0 336.400516 896h489.306839c39.506581 0 74.553806-25.467871 86.940903-63.223742l23.452903-71.38271zM850.415484 340.727742c0-143.029677-115.348645-259.038968-257.651613-259.038968-142.269935 0-257.618581 115.976258-257.618581 259.038968 0 143.06271 115.348645 259.038968 257.651613 259.038968 142.269935 0 257.651613-115.943226 257.651613-259.038968zM338.085161 801.659871L304.491355 699.425032c-6.375226-19.323871-24.311742-32.371613-44.593549-32.371613H164.269419c-38.878968 0-70.35871-31.710968-70.358709-70.788129v-536.047484c0-39.077161 31.479742-70.755097 70.358709-70.755096h923.383742c38.878968 0 70.35871 31.677935 70.35871 70.755096V596.26529a70.589935 70.589935 0 0 1-70.35871 70.755097H902.110968a46.938839 46.938839 0 0 0-44.560516 32.404645l-33.527742 102.234839H338.052129z m760.53471-240.408774c0-26.062452-21.008516-47.203097-46.905806-47.203097-25.930323 0-46.938839 21.140645-46.938839 47.203097s21.008516 47.170065 46.905806 47.170064c25.930323 0 46.905806-21.140645 46.905807-47.170064z"  horiz-adv-x="1255" />

    
    <glyph glyph-name="icon_account" unicode="&#58940;" d="M789.908211-52.843789H213.557895a5.551158 5.551158 0 0 0-5.362527 5.470315c0 107.439158 78.147368 201.970526 181.840843 219.944421a37.241263 37.241263 0 0 1 30.396631 33.199158 37.672421 37.672421 0 0 1-23.174737 38.831158c-111.130947 44.409263-182.972632 151.929263-182.972631 273.946948 0 162.142316 128.943158 294.049684 287.447579 294.049684 158.477474 0 287.420632-131.907368 287.420631-294.049684 0-122.017684-71.814737-229.537684-182.972631-273.946948-15.36-6.117053-24.845474-22.016-23.174737-38.80421a37.214316 37.214316 0 0 1 30.450526-33.226106c103.639579-17.973895 181.786947-112.505263 181.786947-219.944421a5.551158 5.551158 0 0 0-5.335578-5.470315M711.141053 217.626947c94.073263 68.042105 151.471158 178.688 151.471158 300.921264C862.612211 722.135579 700.712421 887.754105 501.76 887.754105 302.726737 887.754105 140.826947 722.135579 140.826947 518.548211c0-122.233263 57.397895-232.879158 151.498106-300.921264C197.470316 167.612632 134.736842 66.991158 134.736842-47.373474 134.736842-91.836632 170.091789-128 213.557895-128h576.350316c43.466105 0 78.821053 36.163368 78.821052 80.626526 0 114.364632-62.706526 215.04-157.58821 265.000421"  horiz-adv-x="1024" />

    
    <glyph glyph-name="icon_list_number" unicode="&#58941;" d="M369.777778 783.274667c-154.055111 0-279.381333-125.240889-279.381334-279.153778a277.560889 277.560889 0 0 1 177.834667-260.039111 42.126222 42.126222 0 0 0-8.305778-80.810667c-100.096-16.924444-175.587556-106.097778-175.587555-207.416889l571.306666 0.426667c-0.426667 100.892444-75.946667 190.065778-176.014222 206.990222a42.126222 42.126222 0 1 0-8.305778 80.782222 277.532444 277.532444 0 0 1 177.834667 260.067556c0 153.912889-125.326222 279.153778-279.381333 279.153778M655.644444-128H83.911111A83.968 83.968 0 0 0 0-44.145778c0 109.767111 59.847111 206.734222 151.267556 257.450667C60.871111 280.661333 6.030222 386.986667 6.030222 504.120889 6.030222 704.512 169.244444 867.555556 369.777778 867.555556c200.533333 0 363.719111-163.043556 363.719111-363.434667 0-117.134222-54.812444-223.459556-145.208889-290.816A293.717333 293.717333 0 0 0 739.555556-44.145778 83.968 83.968 0 0 0 655.644444-128M530.659556 771.783111A361.102222 361.102222 0 0 1 455.111111 813.824C514.702222 865.109333 591.388444 896 674.958222 896 864.284444 896 1018.311111 737.336889 1018.311111 542.350222c0-112.810667-50.688-215.324444-134.456889-280.945778C968.647111 211.541333 1024 117.930667 1024 12.174222 1024-33.763556 987.733333-71.111111 943.132444-71.111111h-254.520888a301.653333 301.653333 0 0 1-15.217778 85.617778h256.227555c-1.251556 95.800889-70.883556 179.683556-162.929777 195.754666a42.467556 42.467556 0 0 0-34.531556 37.973334 43.064889 43.064889 0 0 0 26.339556 44.373333c100.494222 40.448 165.461333 138.353778 165.461333 249.429333 0 147.626667-116.622222 267.747556-259.982222 267.747556a252.728889 252.728889 0 0 1-133.319111-38.001778z"  horiz-adv-x="1024" />

    
    <glyph glyph-name="list_live_icon_more" unicode="&#58942;" d="M803.61984 384a87.296 87.296 0 0 0-24.576-75.117714L368.566126-101.595429a87.405714 87.405714 0 0 0-123.611429 123.611429L606.902126 384 244.954697 745.947429a87.405714 87.405714 0 1 0 123.611429 123.611428l410.477714-410.441143c20.48-20.48 28.672-48.530286 24.576-75.117714z"  horiz-adv-x="1024" />

    
    <glyph glyph-name="read_btn_datalog" unicode="&#58943;" d="M48.16331 790.068966C21.53931 790.068966 0 813.797517 0 843.034483S21.53931 896 48.16331 896h962.983724C1037.771034 896 1059.310345 872.271448 1059.310345 843.034483S1037.771034 790.068966 1011.147034 790.068966H48.16331z m0-443.215449C21.53931 346.853517 0 370.582069 0 399.819034c0 29.272276 21.53931 52.965517 48.16331 52.965518h962.983724c26.58869 0 48.16331-23.693241 48.163311-52.965518 0-29.236966-21.53931-52.965517-48.163311-52.965517H48.16331z m0-443.180138c-26.58869 0-48.16331 23.693241-48.16331 52.965518 0 29.236966 21.53931 52.965517 48.16331 52.965517h962.983724c26.58869 0 48.16331-23.728552 48.163311-52.965517 0-29.272276-21.53931-52.965517-48.163311-52.965518H48.16331z"  horiz-adv-x="1059" />

    
    <glyph glyph-name="live_btn_answers" unicode="&#58944;" d="M274.285714 896h767.926857a54.857143 54.857143 0 1 0 0-109.714286H274.285714a54.857143 54.857143 0 0 0 0 109.714286z m0-475.428571h767.926857a54.857143 54.857143 0 1 0 0-109.714286H274.285714a54.857143 54.857143 0 0 0 0 109.714286z m0-438.857143h767.926857a54.857143 54.857143 0 1 0 0-109.714286H274.285714a54.857143 54.857143 0 0 0 0 109.714286z m-219.428571 804.571428a54.857143 54.857143 0 1 0 0 109.714286 54.857143 54.857143 0 0 0 0-109.714286z m0-475.428571a54.857143 54.857143 0 1 0 0 109.714286 54.857143 54.857143 0 0 0 0-109.714286z m0-438.857143a54.857143 54.857143 0 1 0 0 109.714286 54.857143 54.857143 0 0 0 0-109.714286z"  horiz-adv-x="1097" />

    
    <glyph glyph-name="read_icon_browse" unicode="&#58945;" d="M808.421053-17.515789c-393.054316 0-705.104842 188.308211-705.104842 406.258526 0 217.896421 312.050526 406.204632 705.104842 406.204631s705.104842-188.308211 705.104842-406.204631c0-217.950316-312.050526-406.258526-705.104842-406.258526zM808.421053 896C365.568 896 0 675.354947 0 388.742737c0-286.666105 365.568-507.311158 808.421053-507.311158 442.799158 0 808.421053 220.645053 808.421052 507.311158C1616.842105 675.354947 1251.220211 896 808.421053 896zM609.495579 372.789895c0 93.615158 78.255158 169.552842 174.834526 169.552842 96.579368 0 174.834526-75.937684 174.834527-169.552842 0-27.917474 23.336421-50.553263 52.11621-50.553263s52.116211 22.635789 52.116211 50.553263c0 149.450105-124.928 270.551579-279.066948 270.551579s-279.066947-121.101474-279.066947-270.551579c0-149.504 124.928-270.605474 279.066947-270.605474 28.779789 0 52.116211 22.635789 52.116211 50.499368 0 27.917474-23.336421 50.553263-52.116211 50.553264-96.579368 0-174.834526 75.883789-174.834526 169.552842z"  horiz-adv-x="1616" />

    
    <glyph glyph-name="search_btn_delete" unicode="&#58946;" d="M712.073846 709.080615h-85.346461c0 48.324923-38.715077 87.355077-86.252308 87.355077-47.616 0-86.331077-38.990769-86.331077-87.355077H368.836923c0 95.310769 76.760615 172.701538 171.598769 172.701539 94.877538 0 171.638154-77.390769 171.638154-172.701539zM56.871385 666.387692a42.653538 42.653538 0 1 0 0 85.346462H1024a42.653538 42.653538 0 1 0 0-85.307077H56.871385zM852.401231 709.080615h85.307077v-609.516307a213.346462 213.346462 0 0 0-213.307077-213.346462H356.509538a213.346462 213.346462 0 0 0-213.346461 213.346462V709.080615h85.346461v-609.516307a128 128 0 0 1 128-128h367.852308a128 128 0 0 1 128 128V709.080615zM626.727385 448.984615a42.653538 42.653538 0 0 0 85.346461 0v-292.548923a42.653538 42.653538 0 1 0-85.346461 0v292.588308zM368.836923 448.984615a42.653538 42.653538 0 0 0 85.307077 0v-292.548923a42.653538 42.653538 0 0 0-85.307077 0v292.588308z"  horiz-adv-x="1102" />

    
    <glyph glyph-name="live_btn_close" unicode="&#58947;" d="M605.105231 384l372.342154-372.381538a65.811692 65.811692 0 0 0-93.105231-93.105231L512 290.934154l-372.381538-372.342154a65.811692 65.811692 0 1 0-93.105231 93.105231L418.934154 384 46.552615 756.381538a65.811692 65.811692 0 1 0 93.105231 93.105231L512 477.065846l372.381538 372.342154a65.811692 65.811692 0 1 0 93.105231-93.105231L605.065846 384z"  horiz-adv-x="1024" />

    
    <glyph glyph-name="icon_phone" unicode="&#58948;" d="M736.5888 896a130.4832 130.4832 0 0 0 130.304-130.304v-759.936a130.4832 130.4832 0 0 0-130.304-130.304H271.104A130.4832 130.4832 0 0 0 140.8 5.76V765.696A130.4832 130.4832 0 0 0 271.104 896h465.4848z m0-946.0736a55.9104 55.9104 0 0 1 55.8592 55.8336v104.2432H215.2704v-104.2432c0-30.7968 25.0624-55.8336 55.8592-55.8336h465.4592zM271.104 821.504a55.9104 55.9104 0 0 1-55.8592-55.8592v-581.1968h577.1776V765.696a55.9104 55.9104 0 0 1-55.8592 55.8592H271.104z m232.704-740.6592a46.5408 46.5408 0 1 0 0.0256-93.0816 46.5408 46.5408 0 0 0 0 93.0816z"  horiz-adv-x="1024" />

    
    <glyph glyph-name="icon_password" unicode="&#58949;" d="M177.852632 335.494737V-20.210526a32.336842 32.336842 0 0 1 32.336842-32.336842h603.621052a32.336842 32.336842 0 0 1 32.336842 32.336842V335.494737H177.852632zM156.294737 410.947368h711.410526a53.894737 53.894737 0 0 0 53.894737-53.894736v-377.263158a107.789474 107.789474 0 0 0-107.789474-107.789474H210.189474a107.789474 107.789474 0 0 0-107.789474 107.789474V357.052632a53.894737 53.894737 0 0 0 53.894737 53.894736z m609.010526 86.231579a37.726316 37.726316 0 0 0-75.452631 0V633.155368c0 94.315789-79.36 171.223579-177.852632 171.223579S334.147368 727.444211 334.147368 633.155368V497.178947a37.726316 37.726316 0 0 0-75.452631 0V633.155368C258.694737 769.670737 372.358737 879.831579 512 879.831579s253.305263-110.160842 253.305263-246.676211V497.178947z"  horiz-adv-x="1024" />

    
    <glyph glyph-name="icon_list_gm" unicode="&#58950;" d="M1037.91721 686.421333c13.915897-15.412513 12.865641-39.384615-2.258051-53.563077l-92.89518-86.856205a480.544821 480.544821 0 0 0 42.325334-197.605743c0-262.301538-209.342359-475.713641-466.65518-475.713641S51.80521 86.068513 51.80521 348.396308c0 71.68 15.72759 139.684103 43.690667 200.704L8.79721 653.705846a38.386872 38.386872 0 0 0 4.384821 53.405539 36.680205 36.680205 0 0 0 52.381538-4.46359l69.369436-83.67918a478.129231 478.129231 0 0 0 60.757333 72.546462L76.565005 828.862359A38.413128 38.413128 0 0 0 79.794544 882.372923a36.653949 36.653949 0 0 0 52.460307-3.308308l121.042052-139.500307a457.754256 457.754256 0 0 0 532.558769-1.654154l139.684102 134.170256a36.680205 36.680205 0 0 0 52.565334-1.575384c14.099692-15.254974 13.390769-39.227077-1.575385-53.589334l-132.962461-127.711179c23.026872-22.843077 43.848205-48.049231 61.860102-75.250872l79.977026 74.778256c15.149949 14.152205 38.675692 13.101949 52.51282-2.310564zM518.46039-51.515077c216.300308 0 392.270769 179.383795 392.270769 399.911385 0 220.52759-175.970462 399.937641-392.270769 399.937641s-392.270769-179.410051-392.270769-399.937641 175.970462-399.911385 392.270769-399.911385z m234.837333 490.259692c12.182974-1.759179 22.317949-10.213744 26.098872-21.79282a31.770256 31.770256 0 0 0-8.165744-32.794257l-99.590564-96.072205 23.499487-135.640615c2.100513-11.999179-2.888205-24.155897-12.865641-31.297641a32.557949 32.557949 0 0 0-34.028307-2.441846L525.129518 182.770872l-123.090051-64.065641c-10.89641-5.645128-24.077128-4.726154-34.028308 2.441846a31.822769 31.822769 0 0 0-12.865641 31.297641l23.499487 135.640615-99.590564 96.098462a31.770256 31.770256 0 0 0-8.165744 32.768c3.807179 11.579077 13.915897 20.033641 26.098872 21.79282l137.609846 19.771077 61.545026 123.405129c5.461333 10.948923 16.699077 17.854359 28.987077 17.854358 12.314256 0 23.552-6.905436 28.987077-17.854358l61.545026-123.405129 137.609846-19.771077z m-138.948923-116.578461l64.853333 62.569025-89.613128 12.865642a32.295385 32.295385 0 0 0-24.339692 17.513025L525.129518 495.510974l-40.067282-80.397128a32.295385 32.295385 0 0 0-24.365949-17.486769l-89.613128-12.891898 64.853333-62.569025c7.614359-7.351795 11.106462-17.933128 9.29477-28.330667l-15.307488-88.326564 80.160821 41.721436a32.584205 32.584205 0 0 0 30.089846 0l80.160821-41.721436-15.307488 88.326564a31.796513 31.796513 0 0 0 9.29477 28.330667z"  horiz-adv-x="1050" />

    
    <glyph glyph-name="icon_list_help" unicode="&#58951;" d="M882.5344 518.7328c0-153.088-91.7248-285.0816-223.0528-344.1664 9.728-14.1568 15.4368-31.2576 15.4368-49.6896v-127.3344a88.1152 88.1152 0 0 0-88.0128-88.0128h-8.1408a33.2544 33.2544 0 0 0-32.9728-30.0288h-81.2288a33.2544 33.2544 0 0 0-32.9728 30.0288h-7.9616a88.1152 88.1152 0 0 0-88.0128 88.0128v127.3344c0 18.432 5.7088 35.5328 15.4368 49.664C219.7248 233.6768 128 365.6704 128 518.7584 128 726.784 297.216 896 505.2672 896c208.0256 0 377.2672-169.216 377.2672-377.2672zM586.9056 143.104H539.136a380.672 380.672 0 0 0-33.8688-1.6128c-11.4176 0-22.7072 0.6144-33.8688 1.6128h-47.7696a18.432 18.432 0 0 1-18.176-18.2016v-127.3344c0-9.856 8.2944-18.176 18.176-18.176h163.2768a18.432 18.432 0 0 1 18.176 18.176v127.3344a18.432 18.432 0 0 1-18.176 18.176z m-81.664 70.2464c168.448 0 305.408 137.0112 305.408 305.408 0 168.3968-136.96 305.408-305.408 305.408-168.3712 0-305.3824-137.0112-305.3824-305.408 0-168.3968 137.0112-305.408 305.408-305.408zM469.3504 579.84a35.9424 35.9424 0 0 0 71.8592 0v-162.6368a35.9424 35.9424 0 0 0-71.8592 0v162.6368z m-116.3264-58.624l51.7888-51.8144a35.9424 35.9424 0 0 0-50.8416-50.7904l-51.7632 51.7888a35.9168 35.9168 0 1 0 50.816 50.816z m305.4848 0a35.9168 35.9168 0 1 0 50.7904-50.816l-51.7888-51.7888a35.84 35.84 0 0 0-50.816 0 35.9168 35.9168 0 0 0 0 50.7904l51.8144 51.8144z"  horiz-adv-x="1024" />

    
    <glyph glyph-name="icon_mymeaasage" unicode="&#58952;" d="M576.795742 888.376971c245.35912 0 444.980068-203.375575 444.980069-453.371088 0-230.795722-174.646997-427.145595-399.185009-450.83956l-176.837195-104.020207a58.822474 58.822474 0 0 0-59.818019 0 61.354002 61.354002 0 0 0-29.923231 52.792317v57.997594C150.844801 33.573787 0.005547 218.745115 0.005547 435.005883 0.005547 685.001397 199.626495 888.405416 444.985615 888.405416h131.810127z m30.833444-828.008807c189.693945 16.184714 338.286113 180.734042 338.286113 374.637719 0 207.357754-165.573317 376.08837-369.119557 376.08837h-131.810127c-203.546239 0-369.119557-168.702172-369.119557-376.08837 0-188.869065 138.778941-349.237105 322.840947-372.987959l33.137419-4.266621v-96.539398l167.336854 98.416711 8.447908 0.739548zM269.371517 432.360578a51.199445 51.199445 0 1 0 102.398891 0 51.199445 51.199445 0 0 0-102.398891 0z m423.305637 0a51.199445 51.199445 0 1 0 102.39889 0 51.199445 51.199445 0 0 0-102.39889 0z m-210.827938 0a51.199445 51.199445 0 1 0 102.39889 0 51.199445 51.199445 0 0 0-102.39889 0z"  horiz-adv-x="1024" />

    
    <glyph glyph-name="btn_homepage" unicode="&#58953;" d="M970.040392-17.340582C970.040392-78.43878 921.605564-128 861.940955-128h-194.89984c-24.712344 0-44.236461 21.503835-42.461541 46.762308a84.308687 84.308687 0 0 1 0.238932 6.041554v172.064814c0 44.509525-35.259463 80.622315-78.744996 80.622315-43.4514 0-78.710863-36.11279-78.710864-80.622315v-172.064814c0-2.047984 0.068266-4.027702 0.204799-6.041554 1.809053-25.258473-17.715064-46.762308-42.461541-46.762308h-194.899839c-59.664609 0-108.065305 49.56122-108.065305 110.659418v296.104397A124.756377 124.756377 0 0 0 29.503603 324.945861c-44.680191 54.510515-37.819443 135.815492 15.359882 181.451409L463.096012 865.750248c25.736336 22.11823 58.469952 32.528817 88.916652 29.832305a123.45932 123.45932 0 0 0 77.00421-30.00297l418.300793-359.352979c53.247592-45.738316 60.176605-126.770228 15.359882-181.485542a124.824643 124.824643 0 0 0-92.67129-46.01138v-296.070264z m-108.099437-23.483553a23.210489 23.210489 0 0 1 22.937424 23.483553V332.04554c0 32.836015 34.133072 53.861987 62.463521 38.570371 16.725205-9.045264 37.717044-4.949295 50.107349 10.171655a42.086077 42.086077 0 0 1-4.846896 58.640617L574.335693 798.815294c-7.065546 6.041554-15.701213 9.352462-27.067526 9.727926a39.594363 39.594363 0 0 1-29.422708-9.55726L99.578799 439.530582c-17.066536-14.677221-19.319319-40.959686-4.846896-58.606484 12.526837-15.291616 33.313878-19.353452 50.039083-10.239921 28.330449 15.359882 62.531787-5.66609 62.531787-38.570371v-349.488521c0-12.970567 10.239921-23.483553 22.903292-23.483553h151.994568v137.692811c0 92.67129 73.386104 167.79818 163.872877 167.79818 90.520906 0 163.872877-75.092758 163.872877-167.79818v-137.692811h151.994568z"  horiz-adv-x="1092" />

    
    <glyph glyph-name="icon_list_change" unicode="&#58954;" d="M881.6 725.408c0 24.8 20.16 44.896 44.928 44.896 212.128 0 384.672-172.544 384.672-384.64 0-212.096-172.544-384.672-384.64-384.672h-113.984l52.64-44.928a44.896 44.896 0 1 0-58.304-68.32l-145.344 124a44.896 44.896 0 0 0-0.512 67.904l141.088 123.968a44.928 44.928 0 0 0 59.296-67.488l-51.616-45.312h116.704c162.56 0 294.848 132.256 294.848 294.848 0 162.56-132.256 294.816-294.848 294.816a44.928 44.928 0 0 0-44.896 44.928z m-188.032-43.68l-145.344-124a44.8 44.8 0 0 0-63.328 5.024 44.928 44.928 0 0 0 5.056 63.296l63.776 54.432h-137.056c-162.56 0-294.848-132.256-294.848-294.816 0-162.56 132.256-294.848 294.848-294.848a44.928 44.928 0 0 0 0-89.824C204.544 0.96 32 173.536 32 385.6 32 597.76 204.544 770.336 416.64 770.336h117.792l-40.736 35.84A44.928 44.928 0 1 0 552.992 873.6l141.12-123.968a44.96 44.96 0 0 0-0.544-67.904z"  horiz-adv-x="1344" />

    
    <glyph glyph-name="mypage_homepage" unicode="&#58955;" d="M908.8 493.002105c0-146.432-80.384-274.351158-199.302737-342.204631 93.588211-40.690526 194.101895-122.88 216.198737-222.127158 5.12-23.120842-9.431579-46.08-32.606316-51.2-23.120842-5.200842-44.355368 10.078316-51.2 32.552421-33.468632 110.187789-151.713684 182.568421-263.275789 182.568421h-127.380211c-113.313684 0-235.654737-85.854316-264.08421-186.125474-5.605053-19.779368-22.042947-34.277053-41.984-34.277052a43.169684 43.169684 0 0 0-42.064842 51.577263c18.162526 96.444632 122.017684 185.936842 217.195789 227.193263C201.566316 218.866526 121.263158 346.677895 121.263158 493.002105 121.263158 710.117053 297.903158 886.757053 515.045053 886.757053c5.658947 0 11.317895 0.080842 16.922947 0.134736 11.587368 0.107789 23.605895 0.269474 35.786105-0.161684l34.061474-1.024c116.843789-3.476211 191.946105-5.874526 205.446737-7.168 11.479579-1.104842 22.042947-6.790737 29.264842-15.76421 12.395789-15.36 11.937684-25.034105 8.218947-100.109474-0.808421-16.087579-1.913263-38.561684-2.128842-51.09221a391.060211 391.060211 0 0 0 66.182737-218.570106zM515.045053 800.929684c-169.795368 0-307.927579-138.132211-307.927579-307.927579 0-169.768421 138.132211-307.927579 307.927579-307.927579 169.768421 0 307.927579 138.132211 307.927579 307.927579 0 64.673684-19.833263 126.544842-57.317053 178.957474-10.617263 14.821053-10.159158 23.956211-6.629053 94.962526l1.320421 27.890527c-47.562105 1.724632-125.251368 4.042105-161.091368 5.12l-34.304 1.024c-5.12 0.161684-10.266947 0.215579-15.548632 0.215579-5.389474 0-10.859789-0.053895-16.491789-0.10779-5.928421-0.080842-11.856842-0.134737-17.866105-0.134737z m165.349052-347.621052a118.945684 118.945684 0 0 0-118.810947-118.837895 118.945684 118.945684 0 0 0-118.810947 118.837895 30.666105 30.666105 0 1 0 61.305263 0c0-31.744 25.788632-57.532632 57.505684-57.532632a57.559579 57.559579 0 0 1 57.505684 57.505684 30.666105 30.666105 0 1 0 61.305263 0z"  horiz-adv-x="1024" />

    
    <glyph glyph-name="btn_comment" unicode="&#58956;" d="M14.491152 410.189576c0-237.381818 148.697212-407.924364 408.141575-468.216243l46.669576-50.765575a54.30303 54.30303 0 0 1 82.819879 0l46.824727 50.920727c255.534545 62.246788 407.986424 237.040485 407.986424 468.061091C1006.933333 675.622788 784.321939 891.562667 510.727758 891.562667 237.071515 891.562667 14.491152 675.622788 14.491152 410.189576zM546.567758-3.878788l-35.871031-39.005091-35.777939 38.912a64.667152 64.667152 0 0 1-33.295515 19.300849C214.202182 67.397818 88.994909 207.623758 88.994909 410.189576c0 223.604364 189.191758 405.53503 421.701818 405.53503 232.541091 0 421.732848-181.930667 421.732849-405.566061 0-194.187636-132.033939-341.798788-353.186909-394.829575-12.629333-3.04097-23.924364-9.681455-32.674909-19.176728zM324.57697 453.197576a47.786667 47.786667 0 1 1 0-95.573334 47.786667 47.786667 0 0 1 0 95.573334z m193.722182 0a47.786667 47.786667 0 1 1 0-95.573334 47.786667 47.786667 0 0 1 0 95.573334z m132.561454-47.786667a47.786667 47.786667 0 1 1 95.573333 0 47.786667 47.786667 0 0 1-95.573333 0z"  horiz-adv-x="1024" />

    
    <glyph glyph-name="live_icon_question" unicode="&#58967;" d="M512-128C229.2224-128 0 101.2224 0 384S229.2224 896 512 896s512-229.2224 512-512-229.2224-512-512-512z m0 199.1168a56.8832 56.8832 0 1 1 0 113.7664 56.8832 56.8832 0 0 1 0-113.7664z m-5.6832 625.7664a51.2 51.2 0 0 1-51.2-51.2v-352.7168a51.2 51.2 0 0 1 51.2-51.2h11.3664a51.2 51.2 0 0 1 51.2 51.2V645.6832a51.2 51.2 0 0 1-51.2 51.2h-11.3664z"  horiz-adv-x="1024" />

    


  </font>
</defs>
</svg>
